<?xml version="1.0" encoding="UTF-8"?>
<svg xmlns="http://www.w3.org/2000/svg" xmlns:xlink="http://www.w3.org/1999/xlink" width="50px" height="50px" viewBox="0 0 50 50" version="1.1">
<g id="surface1">
<path style=" stroke:none;fill-rule:nonzero;fill:rgb(40.000001%,73.333335%,41.568628%);fill-opacity:1;" d="M 29.761719 31.226562 C 28.464844 32.523438 27.816406 34.222656 27.816406 35.921875 C 27.816406 37.621094 28.464844 39.324219 29.761719 40.621094 C 31.058594 41.917969 32.761719 42.566406 34.460938 42.566406 C 36.160156 42.566406 37.859375 41.917969 39.15625 40.621094 C 40.457031 39.324219 41.105469 37.621094 41.105469 35.921875 C 41.105469 34.222656 40.457031 32.523438 39.15625 31.226562 C 37.859375 29.925781 36.160156 29.277344 34.460938 29.277344 C 32.761719 29.277344 31.058594 29.925781 29.761719 31.226562 Z M 26.644531 35.921875 C 26.644531 33.921875 27.40625 31.921875 28.933594 30.394531 C 30.460938 28.871094 32.460938 28.105469 34.460938 28.105469 C 36.460938 28.105469 38.460938 28.871094 39.988281 30.394531 C 41.511719 31.921875 42.277344 33.921875 42.277344 35.921875 C 42.277344 37.921875 41.511719 39.921875 39.988281 41.449219 C 38.460938 42.976562 36.460938 43.738281 34.460938 43.738281 C 32.460938 43.738281 30.460938 42.976562 28.933594 41.449219 C 27.40625 39.921875 26.644531 37.921875 26.644531 35.921875 Z M 26.644531 35.921875 "/>
<path style=" stroke:none;fill-rule:nonzero;fill:rgb(40.000001%,73.333335%,41.568628%);fill-opacity:1;" d="M 35.046875 31.234375 L 35.046875 40.609375 L 33.875 40.609375 L 33.875 31.234375 Z M 35.046875 31.234375 "/>
<path style=" stroke:none;fill-rule:nonzero;fill:rgb(40.000001%,73.333335%,41.568628%);fill-opacity:1;" d="M 29.773438 35.335938 L 39.148438 35.335938 L 39.148438 36.507812 L 29.773438 36.507812 Z M 29.773438 35.335938 "/>
<path style=" stroke:none;fill-rule:nonzero;fill:rgb(12.941177%,12.941177%,12.941177%);fill-opacity:1;" d="M 16.050781 26.191406 L 17.09375 26.191406 C 17.253906 26.191406 17.398438 26.253906 17.503906 26.359375 C 17.957031 26.726562 18.4375 27.023438 18.933594 27.222656 C 19.394531 27.410156 19.871094 27.511719 20.359375 27.511719 C 20.847656 27.511719 21.324219 27.410156 21.785156 27.222656 C 22.292969 27.015625 22.785156 26.710938 23.253906 26.328125 L 23.625 26.777344 L 23.25 26.324219 C 23.359375 26.234375 23.492188 26.191406 23.625 26.191406 L 24.667969 26.191406 C 26.910156 26.191406 28.949219 27.089844 30.449219 28.539062 C 30.09375 28.730469 29.753906 28.949219 29.429688 29.191406 C 28.164062 28.058594 26.492188 27.363281 24.667969 27.363281 L 23.824219 27.363281 C 23.316406 27.761719 22.777344 28.082031 22.222656 28.308594 C 21.621094 28.550781 20.996094 28.683594 20.359375 28.683594 C 19.71875 28.683594 19.097656 28.550781 18.496094 28.308594 C 17.9375 28.082031 17.402344 27.761719 16.894531 27.363281 L 16.050781 27.363281 C 14.082031 27.363281 12.292969 28.167969 10.996094 29.464844 C 9.699219 30.761719 8.894531 32.550781 8.894531 34.519531 L 8.894531 38.574219 L 26.488281 38.574219 C 26.621094 38.980469 26.785156 39.371094 26.980469 39.746094 L 8.308594 39.746094 C 7.988281 39.746094 7.722656 39.484375 7.722656 39.160156 L 7.722656 34.519531 C 7.722656 32.226562 8.660156 30.148438 10.167969 28.636719 C 11.679688 27.128906 13.757812 26.191406 16.050781 26.191406 Z M 16.050781 26.191406 "/>
<path style=" stroke:none;fill-rule:nonzero;fill:rgb(12.941177%,12.941177%,12.941177%);fill-opacity:1;" d="M 20.359375 6.261719 C 22.804688 6.261719 25.023438 6.851562 26.589844 8.105469 C 28.03125 9.257812 28.910156 10.945312 28.910156 13.21875 C 28.910156 15.722656 27.8125 19.070312 26.070312 21.59375 C 24.570312 23.773438 22.578125 25.363281 20.359375 25.363281 C 18.140625 25.363281 16.148438 23.773438 14.644531 21.59375 C 12.90625 19.070312 11.804688 15.722656 11.804688 13.21875 C 11.804688 10.945312 12.6875 9.257812 14.128906 8.105469 C 15.695312 6.851562 17.914062 6.261719 20.359375 6.261719 Z M 25.863281 9.015625 C 24.515625 7.941406 22.554688 7.433594 20.359375 7.433594 C 18.164062 7.433594 16.203125 7.941406 14.855469 9.015625 C 13.691406 9.949219 12.976562 11.335938 12.976562 13.21875 C 12.976562 15.511719 13.996094 18.59375 15.609375 20.933594 C 16.90625 22.816406 18.574219 24.191406 20.359375 24.191406 C 22.144531 24.191406 23.8125 22.816406 25.109375 20.933594 C 26.722656 18.59375 27.738281 15.511719 27.738281 13.21875 C 27.738281 11.335938 27.027344 9.949219 25.863281 9.015625 Z M 25.863281 9.015625 "/>
</g>
</svg>
